<svg xmlns="http://www.w3.org/2000/svg" viewBox="0 0 240 180" width="480" height="360" role="img" aria-label="Two anchors reading the news at the ECTV desk">
  <rect width="240" height="180" rx="18" fill="#062234"/>
  <rect x="8" y="8" width="224" height="164" rx="12" fill="#102f46"/>
  <rect x="86" y="18" width="68" height="22" rx="11" fill="#ff8d75"/>
  <text x="120" y="33" font-family="Trebuchet MS, Segoe UI, Arial, sans-serif" font-size="12" font-weight="900" fill="#062234" text-anchor="middle">ON AIR</text>
  <circle cx="84" cy="74" r="17" fill="#f5f1e8"/>
  <path d="M60 128a24 24 0 0 1 48 0z" fill="#a6eaff"/>
  <circle cx="156" cy="74" r="17" fill="#f5f1e8"/>
  <path d="M132 128a24 24 0 0 1 48 0z" fill="#c7efff"/>
  <rect x="24" y="126" width="192" height="36" rx="8" fill="#07172b"/>
  <rect x="24" y="126" width="192" height="8" rx="4" fill="#a6eaff"/>
  <rect x="44" y="142" width="46" height="12" rx="3" fill="#ffd66e"/>
  <rect x="150" y="142" width="46" height="12" rx="3" fill="#ffd66e"/>
  <g fill="#f5f1e8">
    <rect x="115" y="96" width="10" height="24" rx="5"/>
    <rect x="118" y="120" width="4" height="10"/>
  </g>
  <circle cx="120" cy="96" r="7" fill="#a6eaff"/>
</svg>
